<svg xmlns="http://www.w3.org/2000/svg" viewBox="0 0 86.46 90"><defs><style>.a{fill:#fff;fill-rule:evenodd;}</style></defs><title>__gns_logo</title><path class="a" d="M-242.8,248.93a50.11,50.11,0,0,1-19.84-8.46,50.37,50.37,0,0,1,10.42-8.87l9.57,17.25Z" transform="translate(306.36 -164.09)"/><path class="a" d="M-270.87,253.33a51.06,51.06,0,0,1,6.14-10.27,54.5,54.5,0,0,0,17,8.16A41.67,41.67,0,0,1-270.87,253.33Z" transform="translate(306.36 -164.09)"/><path class="a" d="M-299.71,233l16.72-10a65.38,65.38,0,0,0,15.67,18.18,55.48,55.48,0,0,0-6.76,11.52A43.51,43.51,0,0,1-299.71,233Z" transform="translate(306.36 -164.09)"/><path class="a" d="M-304.85,197.16a50.24,50.24,0,0,0,13-.32,68.05,68.05,0,0,0,7.29,23.2l-16.72,10A46.71,46.71,0,0,1-304.85,197.16Z" transform="translate(306.36 -164.09)"/><path class="a" d="M-290.52,174.12a60.09,60.09,0,0,0-1.71,19.4,47.1,47.1,0,0,1-11.63.4A45.13,45.13,0,0,1-290.52,174.12Z" transform="translate(306.36 -164.09)"/><path class="a" d="M-267.54,204a7.19,7.19,0,0,0-1.78,6.86l-12.48,7.49a64.61,64.61,0,0,1-6.93-22.11,51.4,51.4,0,0,0,13.9-5.36Z" transform="translate(306.36 -164.09)"/><path class="a" d="M-261,215.75l7.19,12.95a52.78,52.78,0,0,0-11.42,9.83,61.76,61.76,0,0,1-14.94-17.3l12.41-7.45A6.54,6.54,0,0,0-261,215.75Z" transform="translate(306.36 -164.09)"/><path class="a" d="M-286.16,170.84l0.15-.09,9.58,17.25a49,49,0,0,1-12.6,4.94A55.3,55.3,0,0,1-286.16,170.84Z" transform="translate(306.36 -164.09)"/><path class="a" d="M-259.48,206.85a4.13,4.13,0,0,1-1.42,5.52,3.8,3.8,0,0,1-5.3-1.48,4.12,4.12,0,0,1,1.42-5.51A3.8,3.8,0,0,1-259.48,206.85Z" transform="translate(306.36 -164.09)"/><path class="a" d="M-231.83,224.42a6.09,6.09,0,0,0-3.51.85,6.33,6.33,0,0,0-2,2,30.26,30.26,0,0,1-2.21,3,6.67,6.67,0,0,0-1.18,6.31l3.12,9.61-2,1.21-9.72-17.51h0c10.86-6.52,14.22-21.58,7.52-33.66s-20.93-16.57-31.79-10l0,0-9.66-17.4,2-1.21,6.44,7.61a6.14,6.14,0,0,0,5.85,2.09,28.79,28.79,0,0,1,3.61-.49,6,6,0,0,0,2.66-.86,6.42,6.42,0,0,0,2.48-2.74l4.32-9.09,8.19,2.28-0.63,10.13a6.6,6.6,0,0,0,2.72,5.78,30.57,30.57,0,0,1,2.88,2.29,6.05,6.05,0,0,0,6.08,1.23l9.23-3.23,4.23,7.63-7.32,6.69a6.62,6.62,0,0,0-2,6.09,32.82,32.82,0,0,1,.46,3.74,6.49,6.49,0,0,0,3.46,5.34l8.75,4.51-2.2,8.51Z" transform="translate(306.36 -164.09)"/><path class="a" d="M-258,204.11a6.54,6.54,0,0,0-6.53-1.85l-7.3-13.14c0.44-.28.84-0.58,1.27-0.87,8.85-4.37,19.74-.94,25.55,8.06Z" transform="translate(306.36 -164.09)"/><path class="a" d="M-258.17,213.78a7.16,7.16,0,0,0,1.73-6.8l13-7.8c4.59,9.73,2,21.26-6.07,27-0.46.24-.91,0.46-1.37,0.71Z" transform="translate(306.36 -164.09)"/></svg>